<svg width="1920" height="639" viewBox="0 0 1920 639" fill="none" xmlns="http://www.w3.org/2000/svg">
<g opacity="0.7" clip-path="url(#clip0_18_1245)">
<path d="M1189.87 -0.5L24105.8 672.5L24105.8 673.068V673.5H-22126.1V672.5L-16929.8 519.895H-16929.8L376.016 11.6533H376.021L789.848 -0.5H1189.87ZM-22092.1 672.5H-1375.35L-882.863 520.895H-16929.8V520.892L-22092.1 672.5ZM-1372.01 672.5H-283.02L-31.8672 520.895H-879.527L-1372.01 672.5ZM-281.189 672.5H134.383L296.238 520.895H-30.0391L-281.189 672.5ZM135.711 672.5H370.551L483.938 520.895H297.566L135.711 672.5ZM371.652 672.5H532.729L614.312 520.895H485.039L371.652 672.5ZM533.727 672.5H658.209L716.256 520.895H615.311L533.727 672.5ZM659.168 672.5H763.605L802.637 520.895H717.215L659.168 672.5ZM764.566 672.5H857.746L880.297 520.895H803.598L764.566 672.5ZM858.723 672.5H946.082L953.467 520.895H881.277L858.723 672.5ZM947.08 672.5H1032.64L1025.26 520.895H954.463L947.08 672.5ZM1033.64 672.5H1121L1098.44 520.895H1026.25L1033.64 672.5ZM1121.97 672.5H1215.15L1176.12 520.895H1099.42L1121.97 672.5ZM1216.11 672.5H1320.55L1262.5 520.895H1177.08L1216.11 672.5ZM1321.51 672.5H1445.99L1364.4 520.895H1263.46L1321.51 672.5ZM1446.99 672.5H1608.07L1494.68 520.895H1365.4L1446.99 672.5ZM1609.17 672.5H1844L1682.15 520.895H1495.78L1609.17 672.5ZM1845.33 672.5H2260.91L2009.76 520.895H1683.48L1845.33 672.5ZM2262.74 672.5H3351.73L2859.24 520.895H2011.59L2262.74 672.5ZM18909.6 520.895H2862.58L3355.06 672.5H24071.8L18909.6 520.892V520.895ZM-16895.9 519.895H-879.617L-490.609 400.144H-12818.2V400.139L-16895.9 519.895ZM-876.279 519.895H-30.2109L168.168 400.144H-487.273L-876.279 519.895ZM-28.3828 519.895H297.305L425.152 400.144H169.998L-28.3828 519.895ZM298.633 519.895H484.684L574.248 400.144H426.48L298.633 519.895ZM485.789 519.895H614.85L679.291 400.144H575.352L485.789 519.895ZM615.848 519.895H716.639L762.488 400.144H680.289L615.848 519.895ZM717.598 519.895H802.895L833.727 400.144H763.449L717.598 519.895ZM803.855 519.895H880.447L898.262 400.144H834.688L803.855 519.895ZM881.426 519.895H953.516L959.348 400.144H899.242L881.426 519.895ZM954.512 519.895H1025.21L1019.38 400.144H960.344L954.512 519.895ZM1026.2 519.895H1098.29L1080.48 400.144H1020.37L1026.2 519.895ZM1099.27 519.895H1175.86L1145.03 400.144H1081.46L1099.27 519.895ZM1176.82 519.895H1262.12L1216.27 400.144H1145.99L1176.82 519.895ZM1263.08 519.895H1363.87L1299.43 400.144H1217.23L1263.08 519.895ZM1364.87 519.895H1493.93L1404.37 400.144H1300.42L1364.87 519.895ZM1495.04 519.895H1681.08L1553.23 400.144H1405.47L1495.04 519.895ZM1682.41 519.895H2008.1L1809.72 400.144H1554.56L1682.41 519.895ZM2009.93 519.895H2855.99L2466.99 400.144H1811.55L2009.93 519.895ZM14797.9 400.144H2470.32L2859.33 519.895H18875.6L14797.9 400.139V400.144ZM-12784.3 399.144H-487.359L-182.184 305.198H-9585.27V305.192L-12784.3 399.144ZM-484.023 399.144H169.824L325.455 305.198H-178.846L-484.023 399.144ZM171.654 399.144H426.223L526.52 305.198H327.285L171.654 399.144ZM427.549 399.144H574.996L645.258 305.198H527.846L427.549 399.144ZM576.1 399.144H679.828L730.383 305.198H646.363L576.1 399.144ZM680.828 399.144H762.871L798.842 305.198H731.383L680.828 399.144ZM763.832 399.144H833.984L858.172 305.198H799.801L763.832 399.144ZM834.943 399.144H898.41L912.387 305.198H859.131L834.943 399.144ZM899.391 399.144H959.396L963.973 305.198H913.367L899.391 399.144ZM960.393 399.144H1019.33L1014.75 305.198H964.969L960.393 399.144ZM1020.32 399.144H1080.33L1066.35 305.198H1015.75L1020.32 399.144ZM1081.31 399.144H1144.78L1120.59 305.198H1067.33L1081.31 399.144ZM1145.73 399.144H1215.89L1179.92 305.198H1121.55L1145.73 399.144ZM1216.85 399.144H1298.89L1248.33 305.198H1180.88L1216.85 399.144ZM1299.89 399.144H1403.62L1333.36 305.198H1249.33L1299.89 399.144ZM1404.72 399.144H1552.17L1451.87 305.198H1334.46L1404.72 399.144ZM1553.49 399.144H1808.06L1652.43 305.198H1453.2L1553.49 399.144ZM1809.89 399.144H2463.74L2158.56 305.198H1654.26L1809.89 399.144ZM11565 305.198H2161.9L2467.07 399.144H14764L11565 305.192V305.198ZM-9551.42 304.198H-178.934L58.7109 231.042H-7060.19V231.034L-9551.42 304.198ZM-175.598 304.198H327.111L448.303 231.042H62.0469L-175.598 304.198ZM328.941 304.198H527.586L605.688 231.042H450.133L328.941 304.198ZM528.914 304.198H646.008L700.721 231.042H607.016L528.914 304.198ZM647.109 304.198H730.922L770.289 231.042H701.824L647.109 304.198ZM731.922 304.198H799.227L827.234 231.042H771.289L731.922 304.198ZM800.184 304.198H858.428L877.262 231.042H828.195L800.184 304.198ZM859.389 304.198H912.535L923.418 231.042H878.223L859.389 304.198ZM913.516 304.198H964.02L967.582 231.042H924.398L913.516 304.198ZM965.016 304.198H1014.7L1011.14 231.042H968.578L965.016 304.198ZM1015.7 304.198H1066.2L1055.32 231.042H1012.14L1015.7 304.198ZM1067.18 304.198H1120.33L1101.5 231.042H1056.3L1067.18 304.198ZM1121.29 304.198H1179.54L1151.52 231.042H1102.46L1121.29 304.198ZM1180.49 304.198H1247.79L1208.43 231.042H1152.48L1180.49 304.198ZM1248.79 304.198H1332.61L1277.89 231.042H1209.43L1248.79 304.198ZM1333.71 304.198H1450.8L1372.7 231.042H1279L1333.71 304.198ZM1452.13 304.198H1650.78L1529.59 231.042H1374.03L1452.13 304.198ZM1652.61 304.198H2155.31L1917.67 231.042H1531.42L1652.61 304.198ZM9039.91 231.042H1921L2158.65 304.198H11531.1L9039.91 231.035V231.042ZM-7026.39 230.042H61.959L245.543 173.528H-5101.84V173.521L-7026.39 230.042ZM65.2969 230.042H449.959L543.58 173.528H248.879L65.2969 230.042ZM451.789 230.042H606.756L667.09 173.528H545.41L451.789 230.042ZM608.082 230.042H701.469L743.736 173.528H668.418L608.082 230.042ZM702.572 230.042H770.828L801.238 173.528H744.84L702.572 230.042ZM771.828 230.042H827.619L849.258 173.528H802.238L771.828 230.042ZM828.578 230.042H877.52L892.07 173.528H850.215L828.578 230.042ZM878.48 230.042H923.568L931.977 173.528H893.031L878.48 230.042ZM924.547 230.042H967.633L970.383 173.528H932.955L924.547 230.042ZM968.629 230.042H1011.09L1008.34 173.528H971.379L968.629 230.042ZM1012.09 230.042H1055.17L1046.76 173.528H1009.34L1012.09 230.042ZM1056.15 230.042H1101.24L1086.69 173.528H1047.74L1056.15 230.042ZM1102.2 230.042H1151.14L1129.5 173.528H1087.65L1102.2 230.042ZM1152.1 230.042H1207.89L1177.48 173.528H1130.46L1152.1 230.042ZM1208.89 230.042H1277.15L1234.88 173.528H1178.48L1208.89 230.042ZM1278.25 230.042H1371.63L1311.3 173.528H1235.98L1278.25 230.042ZM1372.96 230.042H1527.93L1434.31 173.528H1312.62L1372.96 230.042ZM1529.76 230.042H1914.42L1730.84 173.528H1436.14L1529.76 230.042ZM7081.55 173.528H1734.17L1917.76 230.042H9006.08L7081.55 173.521V173.528ZM-5068.03 172.528H248.789L389.363 129.255H-3594.3V129.247L-5068.03 172.528ZM252.127 172.528H545.238L616.924 129.255H392.699L252.127 172.528ZM547.066 172.528H668.158L714.357 129.255H618.754L547.066 172.528ZM669.484 172.528H744.484L776.848 129.255H715.684L669.484 172.528ZM745.588 172.528H801.777L825.064 129.255H777.953L745.588 172.528ZM802.777 172.528H849.641L866.207 129.255H826.062L802.777 172.528ZM850.598 172.528H892.328L903.469 129.255H867.168L850.598 172.528ZM893.289 172.528H932.125L938.562 129.255H904.43L893.289 172.528ZM933.105 172.528H970.434L972.539 129.255H939.543L933.105 172.528ZM971.43 172.528H1008.29L1006.18 129.255H973.535L971.43 172.528ZM1009.29 172.528H1046.61L1040.18 129.255H1007.18L1009.29 172.528ZM1047.59 172.528H1086.43L1075.29 129.255H1041.16L1047.59 172.528ZM1087.39 172.528H1129.12L1112.55 129.255H1076.25L1087.39 172.528ZM1130.08 172.528H1176.94L1153.65 129.255H1113.51L1130.08 172.528ZM1177.94 172.528H1234.13L1201.77 129.255H1154.65L1177.94 172.528ZM1235.23 172.528H1310.23L1264.03 129.255H1202.87L1235.23 172.528ZM1311.56 172.528H1432.65L1360.96 129.255H1265.36L1311.56 172.528ZM1434.48 172.528H1727.59L1587.02 129.255H1362.79L1434.48 172.528ZM5574.03 129.255H1590.35L1730.93 172.528H7047.72L5574.03 129.248V129.255ZM-3560.51 128.255H392.611L499.201 95.4424H-2442.98V95.4346L-3560.51 128.255ZM395.949 128.255H618.58L672.938 95.4424H502.539L395.949 128.255ZM620.41 128.255H715.426L750.457 95.4424H674.768L620.41 128.255ZM716.752 128.255H777.598L802.137 95.4424H751.783L716.752 128.255ZM778.699 128.255H825.602L843.26 95.4424H803.242L778.699 128.255ZM826.602 128.255H866.59L879.154 95.4424H844.258L826.602 128.255ZM867.551 128.255H903.727L912.174 95.4424H880.113L867.551 128.255ZM904.688 128.255H938.711L943.594 95.4424H913.135L904.688 128.255ZM939.691 128.255H972.59L974.188 95.4424H944.572L939.691 128.255ZM973.586 128.255H1006.13L1004.54 95.4424H975.184L973.586 128.255ZM1007.13 128.255H1040.03L1035.15 95.4424H1005.53L1007.13 128.255ZM1041.01 128.255H1075.03L1066.58 95.4424H1036.12L1041.01 128.255ZM1075.99 128.255H1112.17L1099.61 95.4424H1067.54L1075.99 128.255ZM1113.13 128.255H1153.11L1135.46 95.4424H1100.56L1113.13 128.255ZM1154.11 128.255H1201.02L1176.48 95.4424H1136.46L1154.11 128.255ZM1202.12 128.255H1262.96L1227.93 95.4424H1177.58L1202.12 128.255ZM1264.29 128.255H1359.31L1304.95 95.4424H1229.26L1264.29 128.255ZM1361.14 128.255H1583.77L1477.18 95.4424H1306.78L1361.14 128.255ZM4422.7 95.4424H1480.51L1587.1 128.255H5540.2L4422.7 95.4355V95.4424ZM-2409.17 94.4424H502.449L582.383 69.8359H-1571.05V69.8281L-2409.17 94.4424ZM505.785 94.4424H674.594L715.357 69.8359H585.719L505.785 94.4424ZM676.426 94.4424H751.523L777.793 69.8359H717.188L676.426 94.4424ZM752.852 94.4424H802.887L821.289 69.8359H779.121L752.852 94.4424ZM803.988 94.4424H843.797L857.039 69.8359H822.393L803.988 94.4424ZM844.797 94.4424H879.537L888.959 69.8359H858.039L844.797 94.4424ZM880.496 94.4424H912.432L918.766 69.8359H889.918L880.496 94.4424ZM913.393 94.4424H943.742L947.402 69.8359H919.727L913.393 94.4424ZM944.721 94.4424H974.234L975.434 69.8359H948.383L944.721 94.4424ZM975.23 94.4424H1004.49L1003.29 69.8359H976.43L975.23 94.4424ZM1005.48 94.4424H1035L1031.34 69.8359H1004.29L1005.48 94.4424ZM1035.98 94.4424H1066.33L1059.99 69.8359H1032.32L1035.98 94.4424ZM1067.29 94.4424H1099.22L1089.8 69.8359H1060.95L1067.29 94.4424ZM1100.18 94.4424H1134.92L1121.68 69.8359H1090.76L1100.18 94.4424ZM1135.92 94.4424H1175.73L1157.33 69.8359H1122.68L1135.92 94.4424ZM1176.83 94.4424H1226.86L1200.59 69.8359H1158.43L1176.83 94.4424ZM1228.19 94.4424H1303.29L1262.53 69.8359H1201.92L1228.19 94.4424ZM1305.12 94.4424H1473.93L1394 69.8359H1264.36L1305.12 94.4424ZM3550.77 69.8359H1397.33L1477.27 94.4424H4388.86L3550.77 69.8291V69.8359ZM-1537.26 68.8359H585.631L644.816 50.6162H-916.613V50.6084L-1537.26 68.8359ZM588.969 68.8359H717.016L747.197 50.6162H648.154L588.969 68.8359ZM718.844 68.8359H778.863L798.312 50.6162H749.027L718.844 68.8359ZM780.189 68.8359H822.037L835.664 50.6162H799.641L780.189 68.8359ZM823.141 68.8359H857.578L867.383 50.6162H836.768L823.141 68.8359ZM858.576 68.8359H889.344L896.318 50.6162H868.381L858.576 68.8359ZM890.301 68.8359H919.023L923.715 50.6162H897.277L890.301 68.8359ZM919.984 68.8359H947.551L950.262 50.6162H924.676L919.984 68.8359ZM948.531 68.8359H975.48L976.369 50.6162H951.242L948.531 68.8359ZM976.477 68.8359H1003.24L1002.35 50.6162H977.365L976.477 68.8359ZM1004.24 68.8359H1031.19L1028.48 50.6162H1003.35L1004.24 68.8359ZM1032.17 68.8359H1059.73L1055.04 50.6162H1029.46L1032.17 68.8359ZM1060.7 68.8359H1089.42L1082.44 50.6162H1056L1060.7 68.8359ZM1090.38 68.8359H1121.14L1111.33 50.6162H1083.4L1090.38 68.8359ZM1122.14 68.8359H1156.58L1142.95 50.6162H1112.33L1122.14 68.8359ZM1157.68 68.8359H1199.53L1180.07 50.6162H1144.05L1157.68 68.8359ZM1200.85 68.8359H1260.88L1230.69 50.6162H1181.4L1200.85 68.8359ZM1262.7 68.8359H1390.75L1331.56 50.6162H1232.52L1262.7 68.8359ZM2896.33 50.6162H1334.9L1394.08 68.8359H3516.95L2896.33 50.6094V50.6162ZM-882.809 49.6162H648.066L691.234 36.3271H-430.082V36.3203L-882.809 49.6162ZM651.402 49.6162H748.854L770.867 36.3271H694.57L651.402 49.6162ZM750.684 49.6162H799.381L813.568 36.3271H772.699L750.684 49.6162ZM800.707 49.6162H836.41L846.352 36.3271H814.895L800.707 49.6162ZM837.516 49.6162H867.92L875.07 36.3271H847.453L837.516 49.6162ZM868.918 49.6162H896.701L901.789 36.3271H876.07L868.918 49.6162ZM897.66 49.6162H923.973L927.395 36.3271H902.748L897.66 49.6162ZM924.934 49.6162H950.41L952.387 36.3271H928.355L924.934 49.6162ZM951.391 49.6162H976.418L977.066 36.3271H953.367L951.391 49.6162ZM977.414 49.6162H1002.3L1001.66 36.3271H978.062L977.414 49.6162ZM1003.3 49.6162H1028.33L1026.35 36.3271H1002.65L1003.3 49.6162ZM1029.31 49.6162H1054.79L1051.36 36.3271H1027.33L1029.31 49.6162ZM1055.75 49.6162H1082.06L1076.97 36.3271H1052.32L1055.75 49.6162ZM1083.02 49.6162H1110.8L1103.64 36.3271H1077.93L1083.02 49.6162ZM1111.79 49.6162H1142.2L1132.27 36.3271H1104.64L1111.79 49.6162ZM1143.31 49.6162H1179.01L1164.82 36.3271H1133.37L1143.31 49.6162ZM1180.33 49.6162H1229.04L1207.02 36.3271H1166.15L1180.33 49.6162ZM1230.87 49.6162H1328.31L1285.14 36.3271H1208.85L1230.87 49.6162ZM2409.8 36.3271H1288.48L1331.65 49.6162H2862.5L2409.8 36.3213V36.3271ZM-396.262 35.3271H694.482L725.391 25.8125H-72.0547V25.8057L-396.262 35.3271ZM697.82 35.3271H772.525L788.287 25.8125H728.727L697.82 35.3271ZM774.355 35.3271H814.637L824.793 25.8125H790.117L774.355 35.3271ZM815.963 35.3271H847.098L854.215 25.8125H826.121L815.963 35.3271ZM848.203 35.3271H875.609L880.73 25.8125H855.318L848.203 35.3271ZM876.609 35.3271H902.172L905.814 25.8125H881.729L876.609 35.3271ZM903.131 35.3271H927.652L930.102 25.8125H906.773L903.131 35.3271ZM928.613 35.3271H952.537L953.953 25.8125H931.062L928.613 35.3271ZM953.516 35.3271H977.113L977.578 25.8125H954.932L953.516 35.3271ZM978.109 35.3271H1001.61L1001.14 25.8125H978.574L978.109 35.3271ZM1002.61 35.3271H1026.2L1024.79 25.8125H1002.14L1002.61 35.3271ZM1027.18 35.3271H1051.11L1048.66 25.8125H1025.77L1027.18 35.3271ZM1052.07 35.3271H1076.59L1072.95 25.8125H1049.62L1052.07 35.3271ZM1077.55 35.3271H1103.11L1097.99 25.8125H1073.9L1077.55 35.3271ZM1104.11 35.3271H1131.52L1124.4 25.8125H1098.98L1104.11 35.3271ZM1132.62 35.3271H1163.75L1153.59 25.8125H1125.5L1132.62 35.3271ZM1165.08 35.3271H1205.36L1189.6 25.8125H1154.92L1165.08 35.3271ZM1207.19 35.3271H1281.89L1250.99 25.8125H1191.43L1207.19 35.3271ZM2051.77 25.8125H1254.32L1285.23 35.3271H2375.95L2051.77 25.8066V25.8125ZM-38.2324 24.8125H728.639L750.25 18.1602H188.547V18.1523L-38.2324 24.8125ZM731.977 24.8125H789.943L800.965 18.1602H753.586L731.977 24.8125ZM791.773 24.8125H825.861L832.965 18.1602H802.793L791.773 24.8125ZM827.188 24.8125H854.963L859.938 18.1602H834.291L827.188 24.8125ZM856.066 24.8125H881.268L884.848 18.1602H861.043L856.066 24.8125ZM882.266 24.8125H906.197L908.744 18.1602H885.848L882.266 24.8125ZM907.156 24.8125H930.357L932.07 18.1602H909.703L907.156 24.8125ZM931.318 24.8125H954.102L955.09 18.1602H933.031L931.318 24.8125ZM955.082 24.8125H977.625L977.949 18.1602H956.07L955.082 24.8125ZM978.621 24.8125H1001.1L1000.77 18.1602H978.945L978.621 24.8125ZM1002.09 24.8125H1024.64L1023.65 18.1602H1001.77L1002.09 24.8125ZM1025.62 24.8125H1048.4L1046.69 18.1602H1024.63L1025.62 24.8125ZM1049.36 24.8125H1072.56L1070.02 18.1602H1047.65L1049.36 24.8125ZM1073.52 24.8125H1097.45L1093.87 18.1602H1070.97L1073.52 24.8125ZM1098.45 24.8125H1123.65L1118.68 18.1602H1094.87L1098.45 24.8125ZM1124.76 24.8125H1152.53L1145.42 18.1602H1119.78L1124.76 24.8125ZM1153.85 24.8125H1187.95L1176.93 18.1602H1146.75L1153.85 24.8125ZM1189.78 24.8125H1247.74L1226.13 18.1602H1178.75L1189.78 24.8125ZM1791.17 18.1602H1229.46L1251.08 24.8125H2017.92L1791.17 18.1533V18.1602ZM222.357 17.1602H753.496L768.137 12.6533H376.016V12.6475L222.357 17.1602ZM756.834 17.1602H802.621L810.086 12.6533H771.475L756.834 17.1602ZM804.451 17.1602H834.031L838.844 12.6533H811.918L804.451 17.1602ZM835.359 17.1602H860.686L864.057 12.6533H840.17L835.359 17.1602ZM861.789 17.1602H885.387L887.812 12.6533H865.16L861.789 17.1602ZM886.387 17.1602H909.127L910.852 12.6533H888.811L886.387 17.1602ZM910.086 17.1602H932.328L933.488 12.6533H911.812L910.086 17.1602ZM933.289 17.1602H955.238L955.91 12.6533H934.449L933.289 17.1602ZM956.219 17.1602H978L978.219 12.6533H956.891L956.219 17.1602ZM978.996 17.1602H1000.72L1000.5 12.6533H979.215L978.996 17.1602ZM1001.72 17.1602H1023.5L1022.83 12.6533H1001.5L1001.72 17.1602ZM1024.48 17.1602H1046.43L1045.27 12.6533H1023.81L1024.48 17.1602ZM1047.39 17.1602H1069.63L1067.91 12.6533H1046.23L1047.39 17.1602ZM1070.59 17.1602H1093.33L1090.9 12.6533H1068.87L1070.59 17.1602ZM1094.33 17.1602H1117.93L1114.56 12.6533H1091.9L1094.33 17.1602ZM1119.03 17.1602H1144.36L1139.54 12.6533H1115.66L1119.03 17.1602ZM1145.68 17.1602H1175.27L1167.8 12.6533H1140.87L1145.68 17.1602ZM1177.1 17.1602H1222.88L1208.24 12.6533H1169.63L1177.1 17.1602ZM1603.7 12.6533H1211.58L1226.22 17.1602H1757.32L1603.7 12.6484V12.6533ZM409.893 11.6533H771.387L780.84 8.74316H509.184V8.7373L409.893 11.6533ZM774.723 11.6533H811.742L816.564 8.74316H784.176L774.723 11.6533ZM813.574 11.6533H839.91L843.018 8.74316H818.395L813.574 11.6533ZM841.238 11.6533H864.805L866.98 8.74316H844.344L841.238 11.6533ZM865.908 11.6533H888.35L889.916 8.74316H868.086L865.908 11.6533ZM889.348 11.6533H911.234L912.35 8.74316H890.914L889.348 11.6533ZM912.195 11.6533H933.746L934.496 8.74316H913.309L912.195 11.6533ZM934.707 11.6533H956.059L956.492 8.74316H935.457L934.707 11.6533ZM957.039 11.6533H978.268L978.41 8.74316H957.473L957.039 11.6533ZM979.264 11.6533H1000.46L1000.31 8.74316H979.406L979.264 11.6533ZM1001.45 11.6533H1022.68L1022.25 8.74316H1001.31L1001.45 11.6533ZM1023.66 11.6533H1045.01L1044.26 8.74316H1023.23L1023.66 11.6533ZM1045.97 11.6533H1067.52L1066.41 8.74316H1045.22L1045.97 11.6533ZM1068.48 11.6533H1090.37L1088.8 8.74316H1067.37L1068.48 11.6533ZM1091.37 11.6533H1113.81L1111.63 8.74316H1089.8L1091.37 11.6533ZM1114.91 11.6533H1138.48L1135.37 8.74316H1112.74L1114.91 11.6533ZM1139.8 11.6533H1166.14L1161.32 8.74316H1136.7L1139.8 11.6533ZM1167.98 11.6533H1204.99L1195.54 8.74316H1163.15L1167.98 11.6533ZM1470.54 8.74316H1198.88L1208.33 11.6533H1569.79L1470.54 8.73828V8.74316ZM543.037 7.74316H784.088L789.742 6.00293H602.492V5.99707L543.037 7.74316ZM787.426 7.74316H818.221L821.104 6.00293H793.078L787.426 7.74316ZM820.051 7.74316H844.086L845.943 6.00293H822.934L820.051 7.74316ZM845.414 7.74316H867.73L869.031 6.00293H847.27L845.414 7.74316ZM868.832 7.74316H890.453L891.391 6.00293H870.135L868.832 7.74316ZM891.453 7.74316H912.732L913.398 6.00293H892.391L891.453 7.74316ZM913.691 7.74316H934.752L935.199 6.00293H914.357L913.691 7.74316ZM935.713 7.74316H956.641L956.898 6.00293H936.16L935.713 7.74316ZM957.621 7.74316H978.457L978.543 6.00293H957.879L957.621 7.74316ZM979.453 7.74316H1000.27L1000.18 6.00293H979.539L979.453 7.74316ZM1001.26 7.74316H1022.1L1021.84 6.00293H1001.18L1001.26 7.74316ZM1023.08 7.74316H1044.01L1043.56 6.00293H1022.82L1023.08 7.74316ZM1044.97 7.74316H1066.03L1065.36 6.00293H1044.52L1044.97 7.74316ZM1066.99 7.74316H1088.26L1087.32 6.00293H1066.32L1066.99 7.74316ZM1089.26 7.74316H1110.89L1109.58 6.00293H1088.32L1089.26 7.74316ZM1111.99 7.74316H1134.3L1132.45 6.00293H1110.69L1111.99 7.74316ZM1135.63 7.74316H1159.67L1156.79 6.00293H1133.77L1135.63 7.74316ZM1161.5 7.74316H1192.29L1186.64 6.00293H1158.62L1161.5 7.74316ZM1377.22 6.00293H1189.97L1195.63 7.74316H1436.64L1377.22 5.99805V6.00293ZM636.355 5.00293H792.99L795.891 4.11035H666.914V4.10547L636.355 5.00293ZM796.328 5.00293H822.762L824.238 4.11035H799.227L796.328 5.00293ZM824.59 5.00293H847.012L847.965 4.11035H826.07L824.59 5.00293ZM848.338 5.00293H869.777L870.445 4.11035H849.291L848.338 5.00293ZM870.883 5.00293H891.93L892.41 4.11035H871.551L870.883 5.00293ZM892.928 5.00293H913.781L914.123 4.11035H893.408L892.928 5.00293ZM914.74 5.00293H935.457L935.688 4.11035H915.082L914.74 5.00293ZM936.418 5.00293H957.047L957.18 4.11035H936.648L936.418 5.00293ZM958.027 5.00293H978.59L978.635 4.11035H958.16L958.027 5.00293ZM979.586 5.00293H1000.13L1000.09 4.11035H979.631L979.586 5.00293ZM1001.13 5.00293H1021.69L1021.56 4.11035H1001.08L1001.13 5.00293ZM1022.67 5.00293H1043.3L1043.07 4.11035H1022.54L1022.67 5.00293ZM1044.26 5.00293H1064.98L1064.64 4.11035H1044.03L1044.26 5.00293ZM1065.94 5.00293H1086.79L1086.31 4.11035H1065.6L1065.94 5.00293ZM1087.79 5.00293H1108.84L1108.17 4.11035H1087.3L1087.79 5.00293ZM1109.94 5.00293H1131.38L1130.42 4.11035H1109.27L1109.94 5.00293ZM1132.7 5.00293H1155.13L1153.65 4.11035H1131.75L1132.7 5.00293ZM1156.96 5.00293H1183.39L1180.49 4.11035H1155.48L1156.96 5.00293ZM1312.8 4.11035H1183.82L1186.72 5.00293H1343.33L1312.8 4.10645V4.11035ZM700.809 3.11035H799.137L800.064 2.8252H710.684V2.82031L700.809 3.11035ZM802.475 3.11035H825.895L826.367 2.8252H803.402L802.475 3.11035ZM827.727 3.11035H849.031L849.336 2.8252H828.199L827.727 3.11035ZM850.359 3.11035H871.195L871.406 2.8252H850.664L850.359 3.11035ZM872.297 3.11035H892.947L893.102 2.8252H872.512L872.297 3.11035ZM893.945 3.11035H914.506L914.615 2.8252H894.1L893.945 3.11035ZM915.465 3.11035H935.945L936.02 2.8252H915.574L915.465 3.11035ZM936.906 3.11035H957.33L957.371 2.8252H936.98L936.906 3.11035ZM958.309 3.11035H978.684L978.697 2.8252H958.352L958.309 3.11035ZM979.68 3.11035H1000.04L1000.03 2.8252H979.693L979.68 3.11035ZM1001.04 3.11035H1021.41L1021.37 2.8252H1001.02L1001.04 3.11035ZM1022.39 3.11035H1042.81L1042.74 2.8252H1022.35L1022.39 3.11035ZM1043.77 3.11035H1064.25L1064.14 2.8252H1043.7L1043.77 3.11035ZM1065.21 3.11035H1085.77L1085.62 2.8252H1065.1L1065.21 3.11035ZM1086.77 3.11035H1107.42L1107.21 2.8252H1086.61L1086.77 3.11035ZM1108.52 3.11035H1129.36L1129.05 2.8252H1108.31L1108.52 3.11035ZM1130.68 3.11035H1151.99L1151.52 2.8252H1130.38L1130.68 3.11035ZM1153.82 3.11035H1177.24L1176.31 2.8252H1153.35L1153.82 3.11035ZM1269.03 2.8252H1179.65L1180.58 3.11035H1278.88L1269.03 2.82129V2.8252Z" fill="url(#paint0_radial_18_1245)"/>
</g>
<defs>
<radialGradient id="paint0_radial_18_1245" cx="0" cy="0" r="1" gradientUnits="userSpaceOnUse" gradientTransform="translate(989.859 336.5) scale(32746.6 477.402)">
<stop stop-color="#E4E4E7"/>
<stop offset="1" stop-color="white" stop-opacity="0"/>
</radialGradient>
<clipPath id="clip0_18_1245">
<rect width="1920" height="673" fill="white"/>
</clipPath>
</defs>
</svg>
