<svg width="24" height="24" viewBox="0 0 24 24" fill="none" xmlns="http://www.w3.org/2000/svg">
<path d="M12 24C18.6274 24 24 18.6274 24 12C24 5.37258 18.6274 0 12 0C5.37258 0 0 5.37258 0 12C0 18.6274 5.37258 24 12 24Z" fill="#007AB9"/>
<path d="M19.1707 12.967V17.9144H16.3024V13.2986C16.3024 12.1396 15.8883 11.3482 14.8497 11.3482C14.0572 11.3482 13.5864 11.881 13.3785 12.397C13.3029 12.5814 13.2835 12.8374 13.2835 13.096V17.9142H10.4149C10.4149 17.9142 10.4534 10.0966 10.4149 9.28734H13.2837V10.5098C13.2779 10.5195 13.2698 10.5289 13.2647 10.5381H13.2837V10.5098C13.6649 9.9233 14.3447 9.08477 15.8688 9.08477C17.7559 9.08477 19.1707 10.3178 19.1707 12.967ZM7.41417 5.12891C6.43296 5.12891 5.79102 5.77299 5.79102 6.61923C5.79102 7.44749 6.41435 8.11019 7.37653 8.11019H7.39514C8.3956 8.11019 9.01765 7.44749 9.01765 6.61923C8.99862 5.77299 8.3956 5.12891 7.41417 5.12891ZM5.9615 17.9144H8.82898V9.28734H5.9615V17.9144Z" fill="#F1F2F2"/>
</svg>
