<svg width="16" height="16" viewBox="0 0 16 16" fill="none" xmlns="http://www.w3.org/2000/svg">
<path d="M14.5057 10.612L10.239 2.93203C9.66568 1.8987 8.87234 1.33203 7.99901 1.33203C7.12568 1.33203 6.33234 1.8987 5.75901 2.93203L1.49234 10.612C0.952342 11.592 0.892342 12.532 1.32568 13.272C1.75901 14.012 2.61234 14.4187 3.73234 14.4187H12.2657C13.3857 14.4187 14.239 14.012 14.6723 13.272C15.1057 12.532 15.0457 11.5854 14.5057 10.612ZM7.49901 5.9987C7.49901 5.72536 7.72568 5.4987 7.99901 5.4987C8.27234 5.4987 8.49901 5.72536 8.49901 5.9987V9.33203C8.49901 9.60536 8.27234 9.83203 7.99901 9.83203C7.72568 9.83203 7.49901 9.60536 7.49901 9.33203V5.9987ZM8.47234 11.8054C8.43901 11.832 8.40568 11.8587 8.37234 11.8854C8.33234 11.912 8.29234 11.932 8.25234 11.9454C8.21234 11.9654 8.17234 11.9787 8.12567 11.9854C8.08567 11.992 8.03901 11.9987 7.99901 11.9987C7.95901 11.9987 7.91234 11.992 7.86567 11.9854C7.82568 11.9787 7.78568 11.9654 7.74568 11.9454C7.70568 11.932 7.66567 11.912 7.62567 11.8854C7.59234 11.8587 7.55901 11.832 7.52567 11.8054C7.40567 11.6787 7.33234 11.5054 7.33234 11.332C7.33234 11.1587 7.40567 10.9854 7.52567 10.8587C7.55901 10.832 7.59234 10.8054 7.62567 10.7787C7.66567 10.752 7.70568 10.732 7.74568 10.7187C7.78568 10.6987 7.82568 10.6854 7.86567 10.6787C7.95234 10.6587 8.04567 10.6587 8.12567 10.6787C8.17234 10.6854 8.21234 10.6987 8.25234 10.7187C8.29234 10.732 8.33234 10.752 8.37234 10.7787C8.40568 10.8054 8.43901 10.832 8.47234 10.8587C8.59234 10.9854 8.66568 11.1587 8.66568 11.332C8.66568 11.5054 8.59234 11.6787 8.47234 11.8054Z" fill="#DC2626"/>
</svg>
