<svg width="21" height="21" viewBox="0 0 21 21" fill="none" xmlns="http://www.w3.org/2000/svg">
<path fill-rule="evenodd" clip-rule="evenodd" d="M10.5001 0C16.2981 0 21.0001 4.70206 21.0001 10.5001C21.0001 16.2981 16.2981 21.0001 10.5001 21.0001C4.70206 21.0001 0 16.2981 0 10.5001C0 4.70206 4.70206 0 10.5001 0ZM8.31959 13.9106L5.74892 11.3378C5.31097 10.8995 5.31088 10.1849 5.74892 9.74682C6.18706 9.30878 6.90484 9.31152 7.33978 9.74682L9.15209 11.5606L13.6605 7.05214C14.0986 6.614 14.8133 6.614 15.2514 7.05214C15.6895 7.49018 15.6889 8.20548 15.2514 8.643L9.94624 13.9481C9.50873 14.3856 8.79342 14.3863 8.35538 13.9481C8.34307 13.9358 8.33119 13.9233 8.31959 13.9106Z" fill="#27272A"/>
</svg>
