<svg width="24" height="24" viewBox="0 0 24 24" fill="none" xmlns="http://www.w3.org/2000/svg">
<path d="M12 10H12.01" stroke="#2563EB" stroke-width="2" strokeLinecap="round" stroke-linejoin="round"/>
<path d="M12 14H12.01" stroke="#2563EB" stroke-width="2" strokeLinecap="round" stroke-linejoin="round"/>
<path d="M12 6H12.01" stroke="#2563EB" stroke-width="2" strokeLinecap="round" stroke-linejoin="round"/>
<path d="M16 10H16.01" stroke="#2563EB" stroke-width="2" strokeLinecap="round" stroke-linejoin="round"/>
<path d="M16 14H16.01" stroke="#2563EB" stroke-width="2" strokeLinecap="round" stroke-linejoin="round"/>
<path d="M16 6H16.01" stroke="#2563EB" stroke-width="2" strokeLinecap="round" stroke-linejoin="round"/>
<path d="M8 10H8.01" stroke="#2563EB" stroke-width="2" strokeLinecap="round" stroke-linejoin="round"/>
<path d="M8 14H8.01" stroke="#2563EB" stroke-width="2" strokeLinecap="round" stroke-linejoin="round"/>
<path d="M8 6H8.01" stroke="#2563EB" stroke-width="2" strokeLinecap="round" stroke-linejoin="round"/>
<path d="M9 22V19C9 18.7348 9.10536 18.4804 9.29289 18.2929C9.48043 18.1054 9.73478 18 10 18H14C14.2652 18 14.5196 18.1054 14.7071 18.2929C14.8946 18.4804 15 18.7348 15 19V22" stroke="#2563EB" stroke-width="2" strokeLinecap="round" stroke-linejoin="round"/>
<path d="M18 2H6C4.89543 2 4 2.89543 4 4V20C4 21.1046 4.89543 22 6 22H18C19.1046 22 20 21.1046 20 20V4C20 2.89543 19.1046 2 18 2Z" stroke="#2563EB" stroke-width="2" strokeLinecap="round" stroke-linejoin="round"/>
</svg>
