<svg width="16" height="16" viewBox="0 0 16 16" fill="none" xmlns="http://www.w3.org/2000/svg">
<g clip-path="url(#clip0_1270_4190)">
<path d="M2.56667 5.74608C2.46937 5.30776 2.48431 4.85198 2.61011 4.42097C2.73591 3.98997 2.9685 3.59771 3.28632 3.28056C3.60413 2.96341 3.99688 2.73164 4.42814 2.60674C4.85941 2.48184 5.31523 2.46786 5.75334 2.56608C5.99448 2.18895 6.32668 1.87859 6.71931 1.6636C7.11194 1.44862 7.55237 1.33594 8.00001 1.33594C8.44764 1.33594 8.88807 1.44862 9.28071 1.6636C9.67334 1.87859 10.0055 2.18895 10.2467 2.56608C10.6855 2.46743 11.1421 2.48135 11.574 2.60656C12.006 2.73176 12.3992 2.96417 12.7172 3.28218C13.0352 3.60019 13.2677 3.99346 13.3929 4.42542C13.5181 4.85737 13.532 5.31397 13.4333 5.75275C13.8105 5.99389 14.1208 6.32608 14.3358 6.71871C14.5508 7.11135 14.6635 7.55178 14.6635 7.99941C14.6635 8.44705 14.5508 8.88748 14.3358 9.28011C14.1208 9.67275 13.8105 10.0049 13.4333 10.2461C13.5316 10.6842 13.5176 11.14 13.3927 11.5713C13.2678 12.0025 13.036 12.3953 12.7189 12.7131C12.4017 13.0309 12.0094 13.2635 11.5784 13.3893C11.1474 13.5151 10.6917 13.5301 10.2533 13.4327C10.0125 13.8113 9.68006 14.123 9.28676 14.339C8.89346 14.5549 8.45202 14.6681 8.00334 14.6681C7.55466 14.6681 7.11322 14.5549 6.71992 14.339C6.32662 14.123 5.99417 13.8113 5.75334 13.4327C5.31523 13.531 4.85941 13.517 4.42814 13.3921C3.99688 13.2672 3.60413 13.0354 3.28632 12.7183C2.9685 12.4011 2.73591 12.0089 2.61011 11.5779C2.48431 11.1469 2.46937 10.6911 2.56667 10.2527C2.18664 10.0122 1.87362 9.67953 1.65671 9.28556C1.4398 8.89158 1.32605 8.44915 1.32605 7.99941C1.32605 7.54968 1.4398 7.10724 1.65671 6.71327C1.87362 6.3193 2.18664 5.98659 2.56667 5.74608Z" stroke="#16A34A" stroke-width="1.33333" stroke-linecap="round" stroke-linejoin="round"/>
<path d="M6 8.0013L7.33333 9.33464L10 6.66797" stroke="#16A34A" stroke-width="1.33333" stroke-linecap="round" stroke-linejoin="round"/>
</g>
<defs>
<clipPath id="clip0_1270_4190">
<rect width="16" height="16" fill="white"/>
</clipPath>
</defs>
</svg>
