<svg width="16" height="16" viewBox="0 0 16 16" fill="none" xmlns="http://www.w3.org/2000/svg">
<path d="M6.66797 8H9.33464" stroke="#27272A" stroke-width="1.33" stroke-linecap="round" stroke-linejoin="round"/>
<path d="M6.66797 5.33203H9.33464" stroke="#27272A" stroke-width="1.33" stroke-linecap="round" stroke-linejoin="round"/>
<path d="M9.33464 14.0013V12.0013C9.33464 11.6477 9.19416 11.3085 8.94411 11.0585C8.69406 10.8084 8.35492 10.668 8.0013 10.668C7.64768 10.668 7.30854 10.8084 7.05849 11.0585C6.80844 11.3085 6.66797 11.6477 6.66797 12.0013V14.0013" stroke="#27272A" stroke-width="1.33" stroke-linecap="round" stroke-linejoin="round"/>
<path d="M3.9987 6.66797H2.66536C2.31174 6.66797 1.9726 6.80844 1.72256 7.05849C1.47251 7.30854 1.33203 7.64768 1.33203 8.0013V12.668C1.33203 13.0216 1.47251 13.3607 1.72256 13.6108C1.9726 13.8608 2.31174 14.0013 2.66536 14.0013H13.332C13.6857 14.0013 14.0248 13.8608 14.2748 13.6108C14.5249 13.3607 14.6654 13.0216 14.6654 12.668V6.0013C14.6654 5.64768 14.5249 5.30854 14.2748 5.05849C14.0248 4.80844 13.6857 4.66797 13.332 4.66797H11.9987" stroke="#27272A" stroke-width="1.33" stroke-linecap="round" stroke-linejoin="round"/>
<path d="M4 14V3.33333C4 2.97971 4.14048 2.64057 4.39052 2.39052C4.64057 2.14048 4.97971 2 5.33333 2H10.6667C11.0203 2 11.3594 2.14048 11.6095 2.39052C11.8595 2.64057 12 2.97971 12 3.33333V14" stroke="#27272A" stroke-width="1.33" stroke-linecap="round" stroke-linejoin="round"/>
</svg>
