<svg width="48" height="48" viewBox="0 0 48 48" fill="none" xmlns="http://www.w3.org/2000/svg">
<path d="M0 10C0 4.47715 4.47715 0 10 0H38C43.5229 0 48 4.47715 48 10V38C48 43.5229 43.5228 48 38 48H10C4.47715 48 0 43.5228 0 38V10Z" fill="#FBBF24"/>
<path d="M31 23H17C15.8954 23 15 23.8954 15 25V32C15 33.1046 15.8954 34 17 34H31C32.1046 34 33 33.1046 33 32V25C33 23.8954 32.1046 23 31 23Z" stroke="white" stroke-width="2" stroke-linecap="round" stroke-linejoin="round"/>
<path d="M19 23V19C19 17.6739 19.5268 16.4021 20.4645 15.4645C21.4021 14.5268 22.6739 14 24 14C25.3261 14 26.5979 14.5268 27.5355 15.4645C28.4732 16.4021 29 17.6739 29 19V23" stroke="white" stroke-width="2" stroke-linecap="round" stroke-linejoin="round"/>
</svg>
