<svg width="16" height="16" viewBox="0 0 16 16" fill="none" xmlns="http://www.w3.org/2000/svg">
<path d="M3.99935 14.6668C3.64573 14.6668 3.30659 14.5264 3.05654 14.2763C2.80649 14.0263 2.66602 13.6871 2.66602 13.3335V2.66683C2.66602 2.31321 2.80649 1.97407 3.05654 1.72402C3.30659 1.47397 3.64573 1.3335 3.99935 1.3335H9.33268C9.54372 1.33316 9.75274 1.37457 9.9477 1.45534C10.1427 1.53612 10.3197 1.65467 10.4687 1.80416L12.8607 4.19617C13.0106 4.34517 13.1295 4.5224 13.2105 4.71761C13.2915 4.91282 13.333 5.12214 13.3327 5.3335V13.3335C13.3327 13.6871 13.1922 14.0263 12.9422 14.2763C12.6921 14.5264 12.353 14.6668 11.9993 14.6668H3.99935Z" stroke="#CA8A04" stroke-width="1.33333" strokeLinecap="round" stroke-linejoin="round"/>
<path d="M9.33398 1.3335V4.66683C9.33398 4.84364 9.40422 5.01321 9.52925 5.13823C9.65427 5.26326 9.82384 5.3335 10.0007 5.3335H13.334" stroke="#CA8A04" stroke-width="1.33333" strokeLinecap="round" stroke-linejoin="round"/>
<path d="M6.66732 6H5.33398" stroke="#CA8A04" stroke-width="1.33333" strokeLinecap="round" stroke-linejoin="round"/>
<path d="M10.6673 8.6665H5.33398" stroke="#CA8A04" stroke-width="1.33333" strokeLinecap="round" stroke-linejoin="round"/>
<path d="M10.6673 11.3335H5.33398" stroke="#CA8A04" stroke-width="1.33333" strokeLinecap="round" stroke-linejoin="round"/>
</svg>
