<svg width="16" height="16" viewBox="0 0 16 16" fill="none" xmlns="http://www.w3.org/2000/svg">
<path d="M12.0136 8.22016L11.2003 7.40683C11.0069 7.24016 10.8936 6.9935 10.8869 6.72016C10.8736 6.42016 10.9936 6.12016 11.2136 5.90016L12.0136 5.10016C12.7069 4.40683 12.9669 3.74016 12.7469 3.2135C12.5336 2.6935 11.8736 2.40683 10.9003 2.40683H3.93359V1.8335C3.93359 1.56016 3.70693 1.3335 3.43359 1.3335C3.16026 1.3335 2.93359 1.56016 2.93359 1.8335V14.1668C2.93359 14.4402 3.16026 14.6668 3.43359 14.6668C3.70693 14.6668 3.93359 14.4402 3.93359 14.1668V10.9135H10.9003C11.8603 10.9135 12.5069 10.6202 12.7269 10.0935C12.9469 9.56683 12.6936 8.90683 12.0136 8.22016Z" fill="#71717A"/>
</svg>
