<svg width="14" height="14" viewBox="0 0 14 14" fill="none" xmlns="http://www.w3.org/2000/svg">
<path d="M3.4987 12.8346C3.18928 12.8346 2.89253 12.7117 2.67374 12.4929C2.45495 12.2741 2.33203 11.9774 2.33203 11.668V2.33464C2.33203 2.02522 2.45495 1.72847 2.67374 1.50968C2.89253 1.29089 3.18928 1.16797 3.4987 1.16797H8.16536C8.35002 1.16767 8.53291 1.20391 8.70351 1.27459C8.8741 1.34527 9.02903 1.449 9.15937 1.5798L11.2524 3.6728C11.3835 3.80318 11.4875 3.95826 11.5584 4.12906C11.6293 4.29987 11.6657 4.48304 11.6654 4.66797V11.668C11.6654 11.9774 11.5424 12.2741 11.3237 12.4929C11.1049 12.7117 10.8081 12.8346 10.4987 12.8346H3.4987Z" stroke="#71717A" stroke-width="1.16667" stroke-linecap="round" stroke-linejoin="round"/>
<path d="M8.16797 1.16797V4.08464C8.16797 4.23934 8.22943 4.38772 8.33882 4.49711C8.44822 4.60651 8.59659 4.66797 8.7513 4.66797H11.668" stroke="#71717A" stroke-width="1.16667" stroke-linecap="round" stroke-linejoin="round"/>
</svg>
