<svg width="16" height="16" viewBox="0 0 16 16" fill="none" xmlns="http://www.w3.org/2000/svg">
<path d="M12.0107 6.29705V4.40913C12.0107 2.19847 10.2134 0.398438 7.99997 0.398438C5.78931 0.398438 3.98928 2.19847 3.98928 4.40913V6.29705C3.06394 6.37439 2.33594 7.15571 2.33594 8.09964V10.3504C2.33594 13.2437 4.68791 15.5984 7.58124 15.5984H8.41857C11.3119 15.5984 13.6639 13.2437 13.6639 10.3504V8.09964C13.6639 7.15565 12.936 6.37436 12.0107 6.29705ZM5.72531 4.40913C5.84998 1.39514 10.15 1.39582 10.2746 4.40913V6.2892H5.72531L5.72531 4.40913ZM7.36533 11.1532C6.42932 10.5426 6.88599 9.04992 8 9.05982C9.114 9.05049 9.57134 10.5418 8.63468 11.1532C8.56268 11.2012 8.51735 11.2866 8.51735 11.3746V12.3106C8.50002 12.9919 7.50068 12.9932 7.48268 12.3106V11.3746C7.48268 11.2866 7.43733 11.2012 7.36533 11.1532Z" fill="#F59E0B"/>
</svg>
