<svg width="16" height="16" viewBox="0 0 16 16" fill="none" xmlns="http://www.w3.org/2000/svg">
<path d="M10 14V8.66667C10 8.48986 9.92976 8.32029 9.80474 8.19526C9.67971 8.07024 9.51014 8 9.33333 8H6.66667C6.48986 8 6.32029 8.07024 6.19526 8.19526C6.07024 8.32029 6 8.48986 6 8.66667V14" stroke="white" stroke-width="1.33" strokeLinecap="round" stroke-linejoin="round"/>
<path d="M2 6.66568C1.99995 6.47173 2.04222 6.2801 2.12386 6.10416C2.20549 5.92822 2.32453 5.77222 2.47267 5.64702L7.13933 1.64702C7.37999 1.44362 7.6849 1.33203 8 1.33203C8.3151 1.33203 8.62001 1.44362 8.86067 1.64702L13.5273 5.64702C13.6755 5.77222 13.7945 5.92822 13.8761 6.10416C13.9578 6.2801 14 6.47173 14 6.66568V12.6657C14 13.0193 13.8595 13.3584 13.6095 13.6085C13.3594 13.8585 13.0203 13.999 12.6667 13.999H3.33333C2.97971 13.999 2.64057 13.8585 2.39052 13.6085C2.14048 13.3584 2 13.0193 2 12.6657V6.66568Z" stroke="white" stroke-width="1.33" strokeLinecap="round" stroke-linejoin="round"/>
</svg>
