<svg width="20" height="20" viewBox="0 0 20 20" fill="none" xmlns="http://www.w3.org/2000/svg">
<g clip-path="url(#clip0_34_873)">
<path d="M10 20C15.5228 20 20 15.5228 20 10C20 4.47715 15.5228 0 10 0C4.47715 0 0 4.47715 0 10C0 15.5228 4.47715 20 10 20Z" fill="#007AB9"/>
<path d="M15.9759 10.8047V14.9275H13.5857V11.081C13.5857 10.1152 13.2406 9.45566 12.3751 9.45566C11.7147 9.45566 11.3223 9.89971 11.149 10.3297C11.0861 10.4833 11.0699 10.6967 11.0699 10.9122V14.9273H8.67943C8.67943 14.9273 8.71151 8.41267 8.67943 7.73831H11.0701V8.75707C11.0653 8.76509 11.0585 8.77293 11.0542 8.7806H11.0701V8.75707C11.3877 8.26828 11.9542 7.5695 13.2243 7.5695C14.7969 7.5695 15.9759 8.59699 15.9759 10.8047ZM6.1788 4.27295C5.36113 4.27295 4.82617 4.80969 4.82617 5.51488C4.82617 6.2051 5.34562 6.75735 6.14743 6.75735H6.16294C6.99666 6.75735 7.51504 6.2051 7.51504 5.51488C7.49917 4.80969 6.99666 4.27295 6.1788 4.27295ZM4.96824 14.9275H7.35781V7.73831H4.96824V14.9275Z" fill="#F1F2F2"/>
</g>
<defs>
<clipPath id="clip0_34_873">
<rect width="20" height="20" fill="white"/>
</clipPath>
</defs>
</svg>
