<svg width="20" height="20" viewBox="0 0 20 20" fill="none" xmlns="http://www.w3.org/2000/svg">
<path d="M13.3359 13.3346L15.8359 6.66797L18.3359 13.3346C17.6109 13.8763 16.7359 14.168 15.8359 14.168C14.9359 14.168 14.0609 13.8763 13.3359 13.3346Z" stroke="#00A63E" stroke-width="1.66667" stroke-linecap="round" stroke-linejoin="round"/>
<path d="M1.66406 13.3346L4.16406 6.66797L6.66406 13.3346C5.93906 13.8763 5.06406 14.168 4.16406 14.168C3.26406 14.168 2.38906 13.8763 1.66406 13.3346Z" stroke="#00A63E" stroke-width="1.66667" stroke-linecap="round" stroke-linejoin="round"/>
<path d="M5.83594 17.5H14.1693" stroke="#00A63E" stroke-width="1.66667" stroke-linecap="round" stroke-linejoin="round"/>
<path d="M10 2.5V17.5" stroke="#00A63E" stroke-width="1.66667" stroke-linecap="round" stroke-linejoin="round"/>
<path d="M2.5 5.83464H4.16667C5.83333 5.83464 8.33333 5.0013 10 4.16797C11.6667 5.0013 14.1667 5.83464 15.8333 5.83464H17.5" stroke="#00A63E" stroke-width="1.66667" stroke-linecap="round" stroke-linejoin="round"/>
</svg>
