<svg width="26" height="26" viewBox="0 0 26 26" fill="none" xmlns="http://www.w3.org/2000/svg">
<path d="M23.5421 19.4994L14.8754 4.33276C14.6865 3.99932 14.4124 3.72197 14.0813 3.529C13.7501 3.33604 13.3737 3.23437 12.9904 3.23438C12.6072 3.23437 12.2308 3.33604 11.8996 3.529C11.5684 3.72197 11.2944 3.99932 11.1054 4.33276L2.43877 19.4994C2.24776 19.8302 2.1476 20.2057 2.14844 20.5876C2.14929 20.9696 2.25111 21.3446 2.44358 21.6746C2.63606 22.0045 2.91234 22.2777 3.24444 22.4665C3.57653 22.6553 3.95262 22.7529 4.3346 22.7494H21.6679C22.0481 22.749 22.4214 22.6486 22.7505 22.4583C23.0796 22.268 23.3528 21.9944 23.5427 21.6651C23.7326 21.3358 23.8325 20.9623 23.8324 20.5822C23.8323 20.2021 23.7322 19.8286 23.5421 19.4994Z" stroke="white" stroke-width="2.16667" stroke-linecap="round" stroke-linejoin="round"/>
<path d="M13 9.75V14.0833" stroke="white" stroke-width="2.16667" stroke-linecap="round" stroke-linejoin="round"/>
<path d="M13 18.418H13.01" stroke="white" stroke-width="2.16667" stroke-linecap="round" stroke-linejoin="round"/>
</svg>
