<svg width="24" height="24" viewBox="0 0 24 24" fill="none" xmlns="http://www.w3.org/2000/svg">
<g clip-path="url(#clip0_45_2721)">
<path d="M12 24C18.6274 24 24 18.6274 24 12C24 5.37258 18.6274 0 12 0C5.37258 0 0 5.37258 0 12C0 18.6274 5.37258 24 12 24Z" fill="#FF0000"/>
<path d="M15.9272 7.48584H8.07352C7.75966 7.48584 7.44889 7.54768 7.15894 7.66784C6.869 7.78799 6.60557 7.9641 6.38372 8.1861C6.16186 8.40811 5.98593 8.67165 5.86597 8.96167C5.746 9.25169 5.68436 9.56251 5.68457 9.87637V14.1237C5.68436 14.4376 5.746 14.7484 5.86597 15.0384C5.98593 15.3285 6.16186 15.592 6.38372 15.814C6.60557 16.036 6.869 16.2121 7.15894 16.3323C7.44889 16.4524 7.75966 16.5143 8.07352 16.5143H15.9272C16.2411 16.5143 16.5518 16.4524 16.8418 16.3323C17.1317 16.2121 17.3951 16.036 17.617 15.814C17.8389 15.592 18.0148 15.3285 18.1348 15.0384C18.2547 14.7484 18.3164 14.4376 18.3161 14.1237V9.87637C18.3164 9.56251 18.2547 9.25169 18.1348 8.96167C18.0148 8.67165 17.8389 8.40811 17.617 8.1861C17.3951 7.9641 17.1317 7.78799 16.8418 7.66784C16.5518 7.54768 16.2411 7.48584 15.9272 7.48584ZM10.3362 13.9358V10.0643L13.6646 12.0001L10.3362 13.9358Z" fill="white"/>
</g>
<defs>
<clipPath id="clip0_45_2721">
<rect width="24" height="24" fill="white"/>
</clipPath>
</defs>
</svg>
