<svg width="16" height="16" viewBox="0 0 16 16" fill="none" xmlns="http://www.w3.org/2000/svg">
<path d="M10.0001 1.33203H4.00008C3.64646 1.33203 3.30732 1.47251 3.05727 1.72256C2.80722 1.9726 2.66675 2.31174 2.66675 2.66536V13.332C2.66675 13.6857 2.80722 14.0248 3.05727 14.2748C3.30732 14.5249 3.64646 14.6654 4.00008 14.6654H12.0001C12.3537 14.6654 12.6928 14.5249 12.9429 14.2748C13.1929 14.0248 13.3334 13.6857 13.3334 13.332V4.66536L10.0001 1.33203Z" stroke="#2563EB" stroke-width="1.33333" stroke-linecap="round" stroke-linejoin="round"/>
<path d="M9.33325 1.33203V3.9987C9.33325 4.35232 9.47373 4.69146 9.72378 4.94151C9.97383 5.19156 10.313 5.33203 10.6666 5.33203H13.3333" stroke="#2563EB" stroke-width="1.33333" stroke-linecap="round" stroke-linejoin="round"/>
<path d="M6.66659 6H5.33325" stroke="#2563EB" stroke-width="1.33333" stroke-linecap="round" stroke-linejoin="round"/>
<path d="M10.6666 8.66797H5.33325" stroke="#2563EB" stroke-width="1.33333" stroke-linecap="round" stroke-linejoin="round"/>
<path d="M10.6666 11.332H5.33325" stroke="#2563EB" stroke-width="1.33333" stroke-linecap="round" stroke-linejoin="round"/>
</svg>
